<?xml version="1.0" encoding="utf-8"?>
<!-- Generator: Adobe Illustrator 21.1.0, SVG Export Plug-In . SVG Version: 6.00 Build 0)  -->
<svg version="1.1" id="Layer_1" xmlns="http://www.w3.org/2000/svg" xmlns:xlink="http://www.w3.org/1999/xlink" x="0px" y="0px"
	 viewBox="0 0 65 30" style="enable-background:new 0 0 65 30;" xml:space="preserve">
<title>logo_q3_2017_wordmark</title>
<g id="Layer_2">
	<g id="Layer_1-2">
		<path d="M0,0v30h65V0H0z M35.2,21.9l0.9,4.1h-8.7l0.9-4.1L35.2,21.9z M29.2,18.3l2.4-10.2H32l2.3,10.2L29.2,18.3z M44.2,8.3h0.7
			L46.5,26h-1.9V12.8L44.2,8.3z M53.9,12.8V26h-1.8l1.5-17.8h0.7L53.9,12.8z M61.1,26h-3.7V6.2h-6.6l-1.1,15v2.9h-0.7v-2.9l-1.1-15
			h-6.6V26H40L35.3,6.2h-7.1L23.5,26h-4.1c0.7-0.2,1.4-0.6,2-1.1c0.6-0.5,1.1-1.2,1.4-1.9c0.3-0.8,0.5-1.7,0.5-2.5v-0.3
			c0.1-1.5-0.5-3-1.7-4c-1.4-1-3.1-1.7-4.8-1.9c-0.7-0.1-1.4-0.3-2.1-0.5c-0.5-0.1-0.9-0.3-1.3-0.6c-0.3-0.2-0.5-0.4-0.7-0.7
			c-0.1-0.3-0.2-0.6-0.2-0.9c0-0.6,0.3-1.2,0.8-1.6c0.7-0.4,1.5-0.6,2.3-0.6c1-0.1,1.9,0.3,2.6,0.9c0.6,0.5,0.9,1.3,0.9,2.1V13h3.8
			v-1c0-0.8-0.2-1.6-0.5-2.3c-0.3-0.8-0.8-1.4-1.4-2c-0.7-0.6-1.5-1.1-2.3-1.4c-1-0.3-2.1-0.5-3.1-0.5c-1,0-1.9,0.1-2.8,0.4
			c-0.8,0.3-1.5,0.7-2.2,1.2C10,7.9,9.5,8.5,9.2,9.2c-0.3,0.7-0.5,1.5-0.5,2.3v0.2c0,0.9,0.1,1.7,0.5,2.5c0.3,0.7,0.8,1.3,1.4,1.7
			c0.7,0.5,1.4,0.9,2.2,1.1c0.9,0.3,1.8,0.5,2.8,0.7c0.6,0.1,1.3,0.3,1.9,0.5c0.4,0.1,0.8,0.4,1.2,0.6c0.3,0.2,0.5,0.5,0.6,0.8
			c0.1,0.3,0.2,0.6,0.2,0.9c0,0.7-0.3,1.3-0.8,1.8c-0.7,0.5-1.7,0.8-2.6,0.7c-1.2,0.1-2.3-0.3-3.2-1c-0.7-0.8-1.1-1.8-1-2.9v-0.7H8
			v0.9c0,1,0.2,2,0.5,2.9c0.3,0.9,0.8,1.7,1.5,2.3c0.7,0.7,1.6,1.2,2.5,1.5H3.9V4h57.2V26z"/>
	</g>
</g>
</svg>
