<?xml version="1.0" encoding="utf-8"?>
<!-- Generator: Adobe Illustrator 21.1.0, SVG Export Plug-In . SVG Version: 6.00 Build 0)  -->
<svg version="1.1" id="Layer_1" xmlns="http://www.w3.org/2000/svg" xmlns:xlink="http://www.w3.org/1999/xlink" x="0px" y="0px"
	 viewBox="0 0 70 70" style="enable-background:new 0 0 70 70;" xml:space="preserve">
<style type="text/css">
	.st0{fill:none;stroke:#0036CC;}
</style>
<desc>Made with illustrio</desc>
<g>
	<g>
		<path class="st0" d="M51.8,17.9c-0.3-0.1-0.5,0-0.7,0.2c-0.1,0.1-6.3,7.4-12.2,7.4h-14c-3.9,0-7,3.1-7,7s3.1,7,7,7h0.7L28,51.7
			c0.1,0.3,0.3,0.5,0.6,0.5h7.6c0.2,0,0.4-0.1,0.5-0.2c0.1-0.1,0.2-0.3,0.1-0.5l-2.4-12h4.3c6,0,12.2,7.3,12.2,7.4
			c0.1,0.1,0.3,0.2,0.5,0.2c0.1,0,0.1,0,0.2,0c0.3-0.1,0.4-0.3,0.4-0.6v-28C52.2,18.2,52,17.9,51.8,17.9L51.8,17.9z M26.1,29.3h7.6
			c0.4,0,0.6,0.3,0.6,0.6s-0.3,0.6-0.6,0.6h-7.6c-0.4,0-0.6-0.3-0.6-0.6S25.7,29.3,26.1,29.3L26.1,29.3z M26.1,31.8h7.6
			c0.4,0,0.6,0.3,0.6,0.6s-0.3,0.6-0.6,0.6h-7.6c-0.4,0-0.6-0.3-0.6-0.6S25.7,31.8,26.1,31.8L26.1,31.8z M26.1,34.4h7.6
			c0.4,0,0.6,0.3,0.6,0.6s-0.3,0.6-0.6,0.6h-7.6c-0.4,0-0.6-0.3-0.6-0.6S25.7,34.4,26.1,34.4L26.1,34.4z"/>
	</g>
</g>
</svg>
