<?xml version="1.0" encoding="utf-8"?>
<!-- Generator: Adobe Illustrator 21.1.0, SVG Export Plug-In . SVG Version: 6.00 Build 0)  -->
<svg version="1.1" id="Layer_1" xmlns="http://www.w3.org/2000/svg" xmlns:xlink="http://www.w3.org/1999/xlink" x="0px" y="0px"
	 viewBox="0 0 70 70" style="enable-background:new 0 0 70 70;" xml:space="preserve">
<style type="text/css">
	.st0{fill:none;stroke:#0036CC;}
</style>
<desc>Made with illustrio</desc>
<g>
	<g transform="translate(20 22)">
		<path class="st0" d="M24.5,15.7c0,0.4-0.3,0.7-0.7,0.7h-4.1c-0.4,0-0.7-0.3-0.7-0.7v-2h-8.2v2c0,0.4-0.3,0.7-0.7,0.7h-4
			c-0.4,0-0.7-0.3-0.7-0.7v-2h-4v11.6C1.4,25.6,1.7,26,2,26h26c0.4,0,0.7-0.3,0.7-0.7V13.7h-4.1v2H24.5z M28,22.5
			c0,0.4-0.3,0.7-0.7,0.7H2.7c-0.4,0-0.7-0.3-0.7-0.7s0.3-0.7,0.7-0.7h24.5C27.6,21.9,28,22.2,28,22.5L28,22.5z M5.5,12.3v-2
			c0-0.4,0.3-0.7,0.7-0.7h4.1c0.4,0,0.7,0.3,0.7,0.7v2h8.2v-2c0-0.4,0.3-0.7,0.7-0.7H24c0.4,0,0.7,0.3,0.7,0.7v2H30V7.7
			c0-2.3-1.3-3.6-3.6-3.6h-4.6c0-2.2-1.9-4.1-4.2-4.1h-5.3C10,0,8.2,1.8,8.1,4.1H3.6C1.3,4.1,0,5.4,0,7.7v4.6H5.5L5.5,12.3z
			 M12.4,1.4h5.3c1.5,0,2.8,1.2,2.8,2.7h-11C9.6,2.6,10.8,1.4,12.4,1.4L12.4,1.4z"/>
	</g>
</g>
</svg>
