<?xml version="1.0" encoding="utf-8"?>
<!-- Generator: Adobe Illustrator 21.1.0, SVG Export Plug-In . SVG Version: 6.00 Build 0)  -->
<svg version="1.1" id="Layer_1" xmlns="http://www.w3.org/2000/svg" xmlns:xlink="http://www.w3.org/1999/xlink" x="0px" y="0px"
	 viewBox="0 0 70 70" style="enable-background:new 0 0 70 70;" xml:space="preserve">
<style type="text/css">
	.st0{fill:none;stroke:#0036CC;}
</style>
<desc>Made with illustrio</desc>
<g>
	<g transform="translate(17.818 19.09)">
		<circle class="st0" cx="17.2" cy="18.5" r="1.9"/>
		<path class="st0" d="M34.4,5.1V0.6c0-0.4-0.3-0.6-0.6-0.6H0.6C0.3,0,0,0.3,0,0.6v4.5H34.4L34.4,5.1z M10.8,2.5h1.3
			c0.4,0,0.6,0.3,0.6,0.6s-0.3,0.6-0.6,0.6h-1.3c-0.4,0-0.6-0.3-0.6-0.6S10.5,2.5,10.8,2.5L10.8,2.5z M7,2.5h1.3
			c0.4,0,0.6,0.3,0.6,0.6S8.6,3.8,8.3,3.8H7c-0.4,0-0.6-0.3-0.6-0.6S6.6,2.5,7,2.5L7,2.5z M3.2,2.5h1.3c0.4,0,0.6,0.3,0.6,0.6
			S4.8,3.8,4.5,3.8H3.2c-0.4,0-0.6-0.3-0.6-0.6S2.8,2.5,3.2,2.5L3.2,2.5z M0,6.4v24.8c0,0.4,0.3,0.6,0.6,0.6h33.1
			c0.4,0,0.6-0.3,0.6-0.6V6.4H0L0,6.4z M25.5,19.7c0,0.4-0.3,0.6-0.6,0.6h-2.2c-0.1,0.2-0.1,0.4-0.2,0.6l1.6,1.6
			c0.2,0.2,0.2,0.7,0,0.9l-1.8,1.8c-0.2,0.2-0.7,0.2-0.9,0l-1.6-1.6c-0.2,0.1-0.4,0.2-0.6,0.2v2.2c0,0.4-0.3,0.6-0.6,0.6h-2.5
			c-0.4,0-0.6-0.3-0.6-0.6v-2.2c-0.2-0.1-0.3-0.1-0.5-0.2l-1.6,1.6c-0.2,0.2-0.7,0.2-0.9,0l-1.8-1.8c-0.1-0.1-0.2-0.3-0.2-0.4
			s0.1-0.3,0.2-0.4l1.6-1.6c-0.1-0.2-0.2-0.4-0.3-0.6H9.5c-0.4,0-0.6-0.3-0.6-0.6v-2.5c0-0.4,0.3-0.6,0.6-0.6h2.2
			c0.1-0.2,0.1-0.4,0.2-0.6l-1.5-1.5c-0.1-0.1-0.2-0.3-0.2-0.4s0.1-0.3,0.2-0.4l1.8-1.8c0.2-0.2,0.7-0.2,0.9,0l1.5,1.5
			c0.2-0.1,0.4-0.2,0.6-0.2v-2.2c0-0.4,0.3-0.6,0.6-0.6h2.5c0.4,0,0.6,0.3,0.6,0.6v2.2c0.2,0.1,0.4,0.2,0.6,0.3l1.6-1.6
			c0.2-0.2,0.7-0.2,0.9,0l1.8,1.8c0.2,0.2,0.2,0.7,0,0.9l-1.6,1.6c0.1,0.2,0.1,0.3,0.2,0.5h2.2c0.4,0,0.6,0.3,0.6,0.6V19.7
			L25.5,19.7z"/>
		<path class="st0" d="M21.5,17.3c-0.1-0.4-0.2-0.7-0.4-1.1c-0.1-0.2-0.1-0.6,0.1-0.8l1.5-1.5l-0.9-0.9l-1.5,1.5
			c-0.2,0.2-0.5,0.2-0.8,0.1c-0.4-0.2-0.8-0.4-1.2-0.5c-0.3-0.1-0.5-0.3-0.5-0.6v-2.1h-1.3v2.1c0,0.3-0.2,0.5-0.5,0.6
			c-0.4,0.1-0.8,0.3-1.1,0.5c-0.3,0.1-0.6,0.1-0.8-0.1l-1.4-1.4L11.8,14l1.4,1.4c0.2,0.2,0.2,0.5,0.1,0.8c-0.2,0.4-0.4,0.7-0.5,1.1
			c-0.1,0.3-0.3,0.5-0.6,0.5h-2.1v1.3h2.1c0.3,0,0.5,0.2,0.6,0.5c0.1,0.4,0.3,0.8,0.5,1.2c0.2,0.3,0.1,0.6-0.1,0.8L11.8,23l0.9,0.9
			l1.5-1.5c0.2-0.2,0.5-0.2,0.8-0.1c0.3,0.2,0.7,0.3,1.1,0.4c0.3,0.1,0.5,0.3,0.5,0.6v2.1h1.3v-2.1c0-0.3,0.2-0.5,0.5-0.6
			c0.4-0.1,0.8-0.3,1.1-0.5c0.3-0.1,0.6-0.1,0.8,0.1l1.5,1.5l0.9-0.9l-1.5-1.5c-0.2-0.2-0.2-0.5-0.1-0.8c0.2-0.4,0.4-0.7,0.5-1.1
			c0.1-0.3,0.3-0.5,0.6-0.5h2.1v-1.3h-2.1C21.8,17.8,21.6,17.6,21.5,17.3L21.5,17.3z M17.2,21.6c-1.8,0-3.2-1.4-3.2-3.2
			c0-1.8,1.4-3.2,3.2-3.2s3.2,1.4,3.2,3.2C20.4,20.2,18.9,21.6,17.2,21.6L17.2,21.6z"/>
	</g>
</g>
</svg>
