<?xml version="1.0" encoding="utf-8"?>
<!-- Generator: Adobe Illustrator 21.1.0, SVG Export Plug-In . SVG Version: 6.00 Build 0)  -->
<svg version="1.1" id="Layer_1" xmlns="http://www.w3.org/2000/svg" xmlns:xlink="http://www.w3.org/1999/xlink" x="0px" y="0px"
	 viewBox="0 0 70 70" style="enable-background:new 0 0 70 70;" xml:space="preserve">
<style type="text/css">
	.st0{fill:none;stroke:#0036CC;}
</style>
<desc>Made with illustrio</desc>
<g>
	<g transform="translate(17.818 26.09)">
		<path class="st0" d="M17.1,8.1c2.1,0,3.9-1.7,3.9-3.9s-1.7-3.9-3.9-3.9c-2.1,0-3.9,1.7-3.9,3.9S14.9,8.1,17.1,8.1L17.1,8.1z
			 M17.1,10.1c-3.9,0-7.1,3.2-7.1,7.1c0,0.4,0.3,0.6,0.6,0.6h13c0.4,0,0.6-0.3,0.6-0.6C24.2,13.3,21,10.1,17.1,10.1L17.1,10.1z
			 M29.3,6c1.6,0,2.9-1.3,2.9-2.9s-1.3-2.9-2.9-2.9c-1.6,0-2.9,1.3-2.9,2.9S27.7,6,29.3,6L29.3,6z M29.3,7c-2.8,0-5.1,2.3-5.1,5.1
			c0,0.4,0.3,0.6,0.6,0.6h8.9c0.4,0,0.6-0.3,0.6-0.6C34.4,9.3,32.1,7,29.3,7L29.3,7z M5.1,6C6.7,6,8,4.8,8,3.2S6.7,0.3,5.1,0.3
			S2.2,1.6,2.2,3.2S3.5,6,5.1,6L5.1,6z M10.2,12.1C10.2,9.3,7.9,7,5.1,7S0,9.3,0,12.1c0,0.4,0.3,0.6,0.6,0.6h8.9
			C9.9,12.7,10.2,12.4,10.2,12.1L10.2,12.1z"/>
	</g>
</g>
</svg>
