<svg xmlns="http://www.w3.org/2000/svg" viewBox="0 0 33.82 30"><defs><style>.cls-1{fill:#ececec;fill-opacity:0.7;}.cls-2{fill:none;stroke:#0036cc;}</style></defs><title>service-icon1</title><g id="Layer_2" data-name="Layer 2"><g id="Layer_1-2" data-name="Layer 1"><path class="cls-1" d="M31.91,27.45H19.18a.64.64,0,0,0-.64.64.64.64,0,0,1-1.27,0,.64.64,0,0,0-.64-.64H3.91a.64.64,0,1,0,0,1.27h12.2a1.91,1.91,0,0,0,3.6,0h12.2a.64.64,0,1,0,0-1.27ZM17.27,2H2.64A.64.64,0,0,0,2,2.64V25.55a.64.64,0,0,0,.64.64H17.27V2ZM14.09,21.09H6.45a.64.64,0,0,1,0-1.27h7.64a.64.64,0,1,1,0,1.27Zm0-2.55H6.45a.64.64,0,1,1,0-1.27h7.64a.64.64,0,1,1,0,1.27Zm0-2.55H6.45a.64.64,0,1,1,0-1.27h7.64a.64.64,0,1,1,0,1.27Zm0-2.55H6.45a.64.64,0,0,1,0-1.27h7.64a.64.64,0,1,1,0,1.27Zm0-2.55H6.45a.64.64,0,0,1,0-1.27h7.64a.64.64,0,1,1,0,1.27Zm0-2.55H6.45a.64.64,0,1,1,0-1.27h7.64a.64.64,0,1,1,0,1.27ZM33.18,2H18.55V26.18H33.18a.64.64,0,0,0,.64-.64V2.64A.64.64,0,0,0,33.18,2ZM26.82,21.09H21.73a.64.64,0,0,1,0-1.27h5.09a.64.64,0,0,1,0,1.27Zm2.55-2.55H21.73a.64.64,0,0,1,0-1.27h7.64a.64.64,0,1,1,0,1.27Zm0-2.55H21.73a.64.64,0,0,1,0-1.27h7.64a.64.64,0,1,1,0,1.27Zm0-2.55H21.73a.64.64,0,0,1,0-1.27h7.64a.64.64,0,1,1,0,1.27Zm0-2.55H21.73a.64.64,0,0,1,0-1.27h7.64a.64.64,0,1,1,0,1.27Zm0-2.55H21.73a.64.64,0,0,1,0-1.27h7.64a.64.64,0,1,1,0,1.27Z"/><path class="cls-2" d="M30.41,26H17.68a.64.64,0,0,0-.64.64.64.64,0,0,1-1.27,0,.64.64,0,0,0-.64-.64H2.41a.64.64,0,1,0,0,1.27h12.2a1.91,1.91,0,0,0,3.6,0h12.2a.64.64,0,1,0,0-1.27ZM15.77.5H1.14a.64.64,0,0,0-.64.64V24a.64.64,0,0,0,.64.64H15.77V.5ZM12.59,19.59H5a.64.64,0,0,1,0-1.27h7.64a.64.64,0,1,1,0,1.27Zm0-2.55H5a.64.64,0,1,1,0-1.27h7.64a.64.64,0,1,1,0,1.27Zm0-2.55H5a.64.64,0,1,1,0-1.27h7.64a.64.64,0,1,1,0,1.27Zm0-2.55H5a.64.64,0,0,1,0-1.27h7.64a.64.64,0,1,1,0,1.27Zm0-2.55H5A.64.64,0,1,1,5,8.14h7.64a.64.64,0,1,1,0,1.27Zm0-2.55H5A.64.64,0,1,1,5,5.59h7.64a.64.64,0,1,1,0,1.27ZM31.68.5H17V24.68H31.68a.64.64,0,0,0,.64-.64V1.14A.64.64,0,0,0,31.68.5ZM25.32,19.59H20.23a.64.64,0,0,1,0-1.27h5.09a.64.64,0,0,1,0,1.27ZM27.86,17H20.23a.64.64,0,0,1,0-1.27h7.64a.64.64,0,1,1,0,1.27Zm0-2.55H20.23a.64.64,0,0,1,0-1.27h7.64a.64.64,0,1,1,0,1.27Zm0-2.55H20.23a.64.64,0,0,1,0-1.27h7.64a.64.64,0,1,1,0,1.27Zm0-2.55H20.23a.64.64,0,0,1,0-1.27h7.64a.64.64,0,1,1,0,1.27Zm0-2.55H20.23a.64.64,0,0,1,0-1.27h7.64a.64.64,0,1,1,0,1.27Z"/></g></g></svg>