<svg xmlns="http://www.w3.org/2000/svg" viewBox="0 0 36.36 36.36"><defs><style>.cls-1{fill:#ececec;fill-opacity:0.7;}.cls-2{fill:none;stroke:#0036cc;}</style></defs><title>service_icon2</title><g id="Layer_2" data-name="Layer 2"><g id="Layer_1-2" data-name="Layer 1"><path class="cls-1" d="M2,8.36V35.73a.64.64,0,0,0,.64.64H35.73a.64.64,0,0,0,.64-.64V8.36ZM16.64,33.82H5.18a.64.64,0,0,1,0-1.27H16.64a.64.64,0,0,1,0,1.27Zm0-2.55H5.18a.64.64,0,0,1,0-1.27H16.64a.64.64,0,0,1,0,1.27Zm0-2.55H5.18a.64.64,0,1,1,0-1.27H16.64a.64.64,0,1,1,0,1.27Zm16.55,5.09H21.73a.64.64,0,0,1,0-1.27H33.18a.64.64,0,0,1,0,1.27Zm0-2.55H21.73a.64.64,0,0,1,0-1.27H33.18a.64.64,0,0,1,0,1.27Zm0-2.55H21.73a.64.64,0,0,1,0-1.27H33.18a.64.64,0,1,1,0,1.27Zm.64-4.45a.64.64,0,0,1-.64.64h-28a.64.64,0,0,1-.64-.64v-14a.64.64,0,0,1,.64-.64h28a.64.64,0,0,1,.64.64v14Z"/><rect class="cls-1" x="5.82" y="10.91" width="26.73" height="12.73"/><path class="cls-1" d="M36.36,7.09V2.64A.64.64,0,0,0,35.73,2H2.64A.64.64,0,0,0,2,2.64V7.09ZM31.91,3.27a1.27,1.27,0,1,1-1.27,1.27,1.27,1.27,0,0,1,1.27-1.27Zm-3.82,0a1.27,1.27,0,1,1-1.27,1.27,1.27,1.27,0,0,1,1.27-1.27Zm-3.82,0A1.27,1.27,0,1,1,23,4.55a1.27,1.27,0,0,1,1.27-1.27Z"/><path class="cls-2" d="M.5,6.86V34.23a.64.64,0,0,0,.64.64H34.23a.64.64,0,0,0,.64-.64V6.86ZM15.14,32.32H3.68a.64.64,0,0,1,0-1.27H15.14a.64.64,0,0,1,0,1.27Zm0-2.55H3.68a.64.64,0,0,1,0-1.27H15.14a.64.64,0,0,1,0,1.27Zm0-2.55H3.68a.64.64,0,1,1,0-1.27H15.14a.64.64,0,1,1,0,1.27Zm16.55,5.09H20.23a.64.64,0,0,1,0-1.27H31.68a.64.64,0,1,1,0,1.27Zm0-2.55H20.23a.64.64,0,0,1,0-1.27H31.68a.64.64,0,0,1,0,1.27Zm0-2.55H20.23a.64.64,0,0,1,0-1.27H31.68a.64.64,0,1,1,0,1.27Zm.64-4.45a.64.64,0,0,1-.64.64h-28A.64.64,0,0,1,3,22.77v-14a.64.64,0,0,1,.64-.64h28a.64.64,0,0,1,.64.64v14Z"/><rect class="cls-2" x="4.32" y="9.41" width="26.73" height="12.73"/><path class="cls-2" d="M34.86,5.59V1.14A.64.64,0,0,0,34.23.5H1.14a.64.64,0,0,0-.64.64V5.59ZM30.41,1.77A1.27,1.27,0,1,1,29.14,3a1.27,1.27,0,0,1,1.27-1.27Zm-3.82,0A1.27,1.27,0,1,1,25.32,3a1.27,1.27,0,0,1,1.27-1.27Zm-3.82,0A1.27,1.27,0,1,1,21.5,3a1.27,1.27,0,0,1,1.27-1.27Z"/></g></g></svg>