<svg xmlns="http://www.w3.org/2000/svg" viewBox="0 0 35.9 31.45"><defs><style>.cls-1{fill:#ececec;fill-opacity:0.7;}.cls-2{fill:none;stroke:#0036cc;}</style></defs><title>service_icon3</title><g id="Layer_2" data-name="Layer 2"><g id="Layer_1-2" data-name="Layer 1"><path class="cls-1" d="M21.63,12.19a.35.35,0,0,1-.14.09l-6.8,2.41-2.41,6.8a.36.36,0,0,1-.37.24l-1,0a.44.44,0,0,1-.38-.26L2,2.54A.39.39,0,0,1,2.54,2l18.89,8.48a.45.45,0,0,1,.26.38l0,1a.36.36,0,0,1-.11.28Z"/><path class="cls-1" d="M34,3.2h-4.7V5.08H14.18V3.25H8.72L19.06,7.89H29.32V9.77H31.2V24.87H29.32v1.88H14.23V24.87H12.36v-1.8a2,2,0,0,1-.49.07h0l-1,0a1.85,1.85,0,0,1-1.31-.62v2.38H7.65v6.58h6.58V29.57H29.32v1.88H35.9V24.87H34V9.78H35.9V3.2ZM12.36,29.57H9.53V26.75h2.82v2.82Zm21.67,0H31.2V26.75H34v2.82ZM34,7.89H31.2V5.08H34V7.89Z"/><path class="cls-2" d="M20.13,10.69a.35.35,0,0,1-.14.09l-6.8,2.41L10.78,20a.36.36,0,0,1-.37.24l-1,0A.44.44,0,0,1,9,19.94L.53,1A.39.39,0,0,1,1,.53L19.93,9a.45.45,0,0,1,.26.38l0,1a.36.36,0,0,1-.11.28Z"/><path class="cls-2" d="M32.52,1.7h-4.7V3.58H12.68V1.75H7.22L17.56,6.39H27.82V8.27H29.7V23.37H27.82v1.88H12.73V23.37H10.86v-1.8a2,2,0,0,1-.49.07h0l-1,0A1.85,1.85,0,0,1,8,21v2.38H6.15v6.58h6.58V28.07H27.82v1.88H34.4V23.37H32.52V8.28H34.4V1.7ZM10.86,28.07H8V25.25h2.82v2.82Zm21.67,0H29.7V25.25h2.82v2.82Zm0-21.67H29.7V3.58h2.82V6.39Z"/></g></g></svg>